<svg width="670" height="162" viewBox="0 0 670 162" fill="none" xmlns="http://www.w3.org/2000/svg">
<path d="M172.9 0L142 58C135.3 58 145.3 58 135.9 58.1C126.9 58.1 95.5 58.1 86.5 58.2C86.1 58.2 85.7 58.2 85.3 58.2C83.8 58.1 82.7 56.9 82.7 55.5C82.7 54 83.9 52.8999 85.5 52.8999C88.6 52.8999 91.7 52.8999 94.8 52.8999C97.2 52.8999 136.3 52.8999 138.7 52.8999C140.5 52.8999 141.8 51.8 141.8 50.2C141.8 48.6 140.4 47.5 138.6 47.5C133.2 47.5 90.9999 47.5 85.5999 47.5C83.5999 47.5 82.5 46.3 82.7 44.5C82.9 43.1 83.8 42.2 85.4 42.2C86.8 42.2 88.2 42.2 89.7 42.2C105.3 42.2 125.3 42.2 130.8 42.2C132.6 42.2 133.8 41.1 133.8 39.5C133.8 38 132.6 36.8999 130.8 36.8999C129.5 36.8999 128.2 36.8999 127 36.8999C125.2 36.8999 124 35.8999 124 34.2999C124 32.6999 125.1 31.6 126.9 31.6C129.1 31.6 131.2 31.6 133.4 31.6C135.5 31.6 137.5 31.6 139.6 31.6C141.2 31.6 142.3 30.9 142.7 29.5C143.4 27.3 142.1 25.7 139.7 25.7C135.4 25.7 114.1 25.7 99.9 25.7C92.3 25.7 84.6999 25.7 77.0999 25.7C75.5999 25.7 74.5 24.9 74.3 23.6C74.1 21.9 75.1 20.7 77 20.7C80.8 20.7 84.6 20.7 88.3 20.7C93.2 20.7 132 20.7 136.9 20.7C138.6 20.7 139.8 19.6999 139.8 18.2999C139.8 16.7999 138.6 15.7 136.9 15.7C131 15.7 41.8999 15.7 36.0999 15.7C33.9999 15.7 32.8 14.5 33 12.7C33.2 11.3 34.4 10.3999 36.2 10.2999C41.3 10.2999 95.7 10.2999 100.8 10.2999C108.3 10.2999 115.8 10.2999 123.4 10.2999C125.1 10.2999 126.1 9.3999 126.2 7.8999C126.2 6.4999 125 5.19995 123.5 5.19995C121.5 5.09995 119.5 5.19995 117.4 5.19995C99 5.19995 31.2 5.29993 12.7 5.29993C10.9 5.29993 9.79995 4.39993 9.69995 2.79993C9.69995 1.29993 10.9 0.199951 12.7 0.199951C25 0.199951 86.6 0.0999756 98.8 0.0999756H103.1H126.9" fill="url(#paint0_linear_70_770)"/>
<path d="M32 161.7C14.5 161.7 3.8 154.2 0 139.2L17.6 132.5C19.1 136.6 21 139.5 23.4 141.2C25.8 142.9 29 143.8 33.2 143.8C36.6 143.8 39.4 143.1 41.4 141.6C43.4 140.2 44.5 138.2 44.5 135.7C44.5 133 43.4 130.9 41.1 129.4C38.9 127.9 34.4 126.4 27.8 124.8C18.9 122.6 12.4 119.4 8.2 115.1C4 110.8 1.90001 105.1 1.90001 98C1.90001 90.3 4.60001 84.1 9.90001 79.5C15.2 74.9 22.6 72.6 32 72.6C39.5 72.6 45.7 74.1 50.6 77.2C55.5 80.3 59 84.9 61 91L43.6 98.3999C42 93.0999 37.9 90.5 31.3 90.5C28.2 90.5 25.8 91.0999 24.1 92.2999C22.4 93.4999 21.6 95.1 21.6 97.1C21.6 99.4 22.8 101.3 25.2 102.6C27.6 104 32.3 105.5 39.3 107.3C48.1 109.6 54.4 113 58.3 117.3C62.2 121.6 64.1 127.6 64.1 135.2C64.1 143.2 61.1 149.6 55.3 154.4C49.5 159.3 41.7 161.7 32 161.7Z" fill="url(#paint1_linear_70_770)"/>
<path d="M113.5 161.7C102 161.7 93.1999 158.6 86.8999 152.5C80.5999 146.3 77.3999 137.6 77.3999 126.2V74.6H98.1999V124.7C98.1999 130.9 99.4999 135.6 102.2 138.7C104.9 141.9 108.6 143.4 113.5 143.4C118.1 143.4 122 141.8 124.9 138.5C127.9 135.2 129.4 130.6 129.4 124.6V74.5H149.9V126.1C149.9 137.3 146.5 146 139.8 152.3C133.1 158.6 124.3 161.7 113.5 161.7Z" fill="url(#paint2_linear_70_770)"/>
<path d="M219.8 160L214.4 145.7H181.9L176.3 160H155.4L192.5 74.3999H203.9L241.1 160H219.8ZM188.5 128.8H208.1L198.4 103.1L188.5 128.8Z" fill="url(#paint3_linear_70_770)"/>
<path d="M311.8 160L296.4 128.6H292.1V160H271.3V74.6H300.2C309.8 74.6 317.4 76.8999 322.9 81.3999C328.4 85.8999 331.1 92.2999 331.1 100.4C331.1 105.9 329.8 110.8 327.1 115.1C324.5 119.4 320.8 122.7 316.2 125.1L334.5 160H311.8ZM292.1 91.6V113H297.8C301.7 113 304.8 112.1 307.1 110.2C309.4 108.3 310.6 105.8 310.6 102.5C310.6 99.1 309.5 96.5 307.2 94.5C305 92.5 301.9 91.5 298.1 91.5H292.1V91.6Z" fill="url(#paint4_linear_70_770)"/>
<path d="M367.7 142.3H399.6V160H346.9V74.6H398V92.2999H367.7V107.4H395.1V125.2H367.7V142.3Z" fill="url(#paint5_linear_70_770)"/>
<path d="M467.4 74.5H487.1V160.1H475.7L434.3 112.6V159.9H414.3V74.2H426L467.4 121.7V74.5Z" fill="url(#paint6_linear_70_770)"/>
<path d="M536.3 74.5C543.8 74.5 550.6 75.5999 556.5 77.7999C562.4 79.9999 567.2 82.9999 571 86.8999C574.7 90.7999 577.6 95.1999 579.5 100.4C581.4 105.5 582.4 111.1 582.4 117.1C582.4 123.2 581.4 128.9 579.3 134.1C577.2 139.3 574.3 143.8 570.5 147.7C566.7 151.6 561.9 154.6 556 156.7C550.1 158.9 543.6 160 536.4 160H506.2V74.6H536.3V74.5ZM536.3 142.1C544.6 142.1 550.9 139.7 555.3 135C559.7 130.3 561.9 124.3 561.9 117C561.9 109.8 559.7 103.8 555.3 99.2C550.9 94.6 544.6 92.2999 536.3 92.2999H526.9V142.1H536.3Z" fill="url(#paint7_linear_70_770)"/>
<path d="M648 160L642.6 145.7H610.1L604.5 160H583.6L620.7 74.3999H632.1L669.3 160H648ZM616.7 128.8H636.3L626.6 103.1L616.7 128.8Z" fill="url(#paint8_linear_70_770)"/>
<path d="M178.7 58L176.9 48.6H155.9L150.6 58H136.8L171 1.59998H178.6L192.9 58H178.7ZM162.1 37.5H174.7L171.5 20.7999L162.1 37.5Z" fill="url(#paint9_linear_70_770)"/>
<path d="M224.7 59.2C216.6 59.2 210.2 56.8 205.4 52C200.6 47.2 198.2 40.4999 198.2 31.8999C198.2 27.4999 199 23.2999 200.5 19.3999C202 15.4999 204.2 12.1999 206.9 9.3999C209.6 6.5999 212.9 4.39993 216.8 2.79993C220.7 1.19993 224.9 0.399902 229.4 0.399902C241.8 0.399902 250 5.5999 254.1 15.8999L241.8 21.3999C239.7 15.4999 235.2 12.6 228.4 12.6C225 12.6 222.1 13.5 219.6 15.2C217.1 16.9 215.2 19.2 213.9 22C212.6 24.8 212 28 212 31.5C212 36.2 213.2 39.9999 215.7 42.8999C218.2 45.6999 221.7 47.2 226.2 47.2C229.6 47.2 232.4 46.5999 234.5 45.2999C236.6 43.9999 238.5 42.2 240 40L249.6 46.7C244.6 55 236.3 59.2 224.7 59.2Z" fill="url(#paint10_linear_70_770)"/>
<path d="M295.1 13.3999H275.5L273.7 23.3999H291.5L289.4 35.2H271.7L269.7 46.5H290.5L288.4 58.2H254L263.9 1.8999H297.3L295.1 13.3999Z" fill="url(#paint11_linear_70_770)"/>
<path d="M313.8 45.3999H335.9L333.6 58H297.9L307.8 1.69995H321.5L313.8 45.3999Z" fill="url(#paint12_linear_70_770)"/>
<path d="M382 13.3999H362.4L360.6 23.3999H378.3L376.2 35.2H358.5L356.5 46.5H377.3L375.2 58.2H340.8L350.7 1.8999H384.1L382 13.3999Z" fill="url(#paint13_linear_70_770)"/>
<path d="M431.3 17.7999C431.3 22.1999 430.2 25.9 428.1 29C426 32.1 423 34.3 419.1 35.7L426.8 58H412.5L406.3 37.2999H402.2L398.5 58H384.8L394.7 1.69995H413.4C419.1 1.69995 423.5 3.0999 426.6 5.8999C429.7 8.7999 431.3 12.6999 431.3 17.7999ZM406.4 12.8999L404 27H408.3C411.2 27 413.4 26.2999 415 24.8999C416.6 23.4999 417.4 21.5 417.4 19C417.4 17 416.8 15.3999 415.6 14.3999C414.4 13.3999 412.7 12.8999 410.6 12.8999H406.4Z" fill="url(#paint14_linear_70_770)"/>
<path d="M470.1 58L468.3 48.6H447.3L442 58H428.2L462.4 1.59998H470L484.3 58H470.1ZM453.6 37.5H466.2L463 20.7999L453.6 37.5Z" fill="url(#paint15_linear_70_770)"/>
<path d="M534.6 1.69995H547.6L537.7 58.1H530.2L508.8 26.5L503.3 58H490.1L500 1.5H507.8L529.1 33L534.6 1.69995Z" fill="url(#paint16_linear_70_770)"/>
<path d="M579.6 1.69995C583.9 1.69995 587.7 2.3 591 3.5C594.3 4.7 597 6.3 599 8.5C601 10.7 602.6 13.2 603.6 16.1C604.6 19 605.2 22.1999 605.2 25.7999C605.2 35.7999 602 43.6999 595.7 49.3999C589.4 55.1999 580.7 58 569.6 58H549.9L559.8 1.69995H579.6ZM571.8 46.2999C578.2 46.2999 583 44.6 586.4 41.1C589.8 37.6 591.5 32.8999 591.5 26.8999C591.5 22.8999 590.3 19.6 588 17.2C585.7 14.8 582.2 13.5 577.5 13.5H571.5L565.8 46.2999H571.8Z" fill="url(#paint17_linear_70_770)"/>
<path d="M637.8 59.2C632.2 59.2 627.2 58 623 55.7C618.8 53.3 615.5 50.1 613.3 46C611.1 41.9 610 37.2 610 32C610 27.7 610.7 23.6999 612.2 19.7999C613.6 15.9999 615.7 12.6 618.3 9.69995C620.9 6.79995 624.2 4.49993 628.2 2.79993C632.2 1.09993 636.5 0.299927 641.3 0.299927C646.9 0.299927 651.9 1.49993 656.2 3.79993C660.5 6.09993 663.7 9.3999 666 13.3999C668.2 17.4999 669.4 22.0999 669.4 27.3999C669.4 31.6999 668.7 35.7 667.2 39.6C665.8 43.4 663.7 46.8 661.1 49.7C658.5 52.6 655.1 54.9 651.1 56.6C647 58.3 642.6 59.2 637.8 59.2ZM638.9 47C643.8 47 647.8 45.3 650.8 42C653.8 38.6 655.3 34 655.3 28C655.3 23.2 654 19.5 651.4 16.7C648.8 13.9 645 12.5 640.2 12.5C635.5 12.5 631.6 14.2 628.5 17.6C625.4 21 623.8 25.6 623.8 31.5C623.8 36.2 625.1 39.9999 627.8 42.7999C630.4 45.5999 634.2 47 638.9 47Z" fill="url(#paint18_linear_70_770)"/>
<path d="M32 161.7C14.5 161.7 3.8 154.2 0 139.2L17.6 132.5C19.1 136.6 21 139.5 23.4 141.2C25.8 142.9 29 143.8 33.2 143.8C36.6 143.8 39.4 143.1 41.4 141.6C43.4 140.2 44.5 138.2 44.5 135.7C44.5 133 43.4 130.9 41.1 129.4C38.9 127.9 34.4 126.4 27.8 124.8C18.9 122.6 12.4 119.4 8.2 115.1C4 110.8 1.90001 105.1 1.90001 98C1.90001 90.3 4.60001 84.1 9.90001 79.5C15.2 74.9 22.6 72.6 32 72.6C39.5 72.6 45.7 74.1 50.6 77.2C55.5 80.3 59 84.9 61 91L43.6 98.3999C42 93.0999 37.9 90.5 31.3 90.5C28.2 90.5 25.8 91.0999 24.1 92.2999C22.4 93.4999 21.6 95.1 21.6 97.1C21.6 99.4 22.8 101.3 25.2 102.6C27.6 104 32.3 105.5 39.3 107.3C48.1 109.6 54.4 113 58.3 117.3C62.2 121.6 64.1 127.6 64.1 135.2C64.1 143.2 61.1 149.6 55.3 154.4C49.5 159.3 41.7 161.7 32 161.7Z" fill="url(#paint19_linear_70_770)"/>
<path d="M113.5 161.7C102 161.7 93.1999 158.6 86.8999 152.5C80.5999 146.3 77.3999 137.6 77.3999 126.2V74.6H98.1999V124.7C98.1999 130.9 99.4999 135.6 102.2 138.7C104.9 141.9 108.6 143.4 113.5 143.4C118.1 143.4 122 141.8 124.9 138.5C127.9 135.2 129.4 130.6 129.4 124.6V74.5H149.9V126.1C149.9 137.3 146.5 146 139.8 152.3C133.1 158.6 124.3 161.7 113.5 161.7Z" fill="url(#paint20_linear_70_770)"/>
<path d="M219.8 160L214.4 145.7H181.9L176.3 160H155.4L192.5 74.3999H203.9L241.1 160H219.8ZM188.5 128.8H208.1L198.4 103.1L188.5 128.8Z" fill="url(#paint21_linear_70_770)"/>
<path d="M311.8 160L296.4 128.6H292.1V160H271.3V74.6H300.2C309.8 74.6 317.4 76.8999 322.9 81.3999C328.4 85.8999 331.1 92.2999 331.1 100.4C331.1 105.9 329.8 110.8 327.1 115.1C324.5 119.4 320.8 122.7 316.2 125.1L334.5 160H311.8ZM292.1 91.6V113H297.8C301.7 113 304.8 112.1 307.1 110.2C309.4 108.3 310.6 105.8 310.6 102.5C310.6 99.1 309.5 96.5 307.2 94.5C305 92.5 301.9 91.5 298.1 91.5H292.1V91.6Z" fill="url(#paint22_linear_70_770)"/>
<path d="M367.7 142.3H399.6V160H346.9V74.6H398V92.2999H367.7V107.4H395.1V125.2H367.7V142.3Z" fill="url(#paint23_linear_70_770)"/>
<path d="M467.4 74.5H487.1V160.1H475.7L434.3 112.6V159.9H414.3V74.2H426L467.4 121.7V74.5Z" fill="url(#paint24_linear_70_770)"/>
<path d="M536.3 74.5C543.8 74.5 550.6 75.5999 556.5 77.7999C562.4 79.9999 567.2 82.9999 571 86.8999C574.7 90.7999 577.6 95.1999 579.5 100.4C581.4 105.5 582.4 111.1 582.4 117.1C582.4 123.2 581.4 128.9 579.3 134.1C577.2 139.3 574.3 143.8 570.5 147.7C566.7 151.6 561.9 154.6 556 156.7C550.1 158.9 543.6 160 536.4 160H506.2V74.6H536.3V74.5ZM536.3 142.1C544.6 142.1 550.9 139.7 555.3 135C559.7 130.3 561.9 124.3 561.9 117C561.9 109.8 559.7 103.8 555.3 99.2C550.9 94.6 544.6 92.2999 536.3 92.2999H526.9V142.1H536.3Z" fill="url(#paint25_linear_70_770)"/>
<path d="M648 160L642.6 145.7H610.1L604.5 160H583.6L620.7 74.3999H632.1L669.3 160H648ZM616.7 128.8H636.3L626.6 103.1L616.7 128.8Z" fill="url(#paint26_linear_70_770)"/>
<defs>
<linearGradient id="paint0_linear_70_770" x1="91.4281" y1="58.1486" x2="91.4281" y2="-0.308701" gradientUnits="userSpaceOnUse">
<stop stop-color="#AB8F39"/>
<stop offset="1" stop-color="#FDDB5C"/>
</linearGradient>
<linearGradient id="paint1_linear_70_770" x1="32.1107" y1="161.697" x2="32.1107" y2="72.648" gradientUnits="userSpaceOnUse">
<stop stop-color="#AB8F39"/>
<stop offset="1" stop-color="#FDDB5C"/>
</linearGradient>
<linearGradient id="paint2_linear_70_770" x1="113.669" y1="161.697" x2="113.669" y2="74.5217" gradientUnits="userSpaceOnUse">
<stop stop-color="#AB8F39"/>
<stop offset="1" stop-color="#FDDB5C"/>
</linearGradient>
<linearGradient id="paint3_linear_70_770" x1="198.296" y1="159.955" x2="198.296" y2="74.3905" gradientUnits="userSpaceOnUse">
<stop stop-color="#AB8F39"/>
<stop offset="1" stop-color="#FDDB5C"/>
</linearGradient>
<linearGradient id="paint4_linear_70_770" x1="302.909" y1="159.955" x2="302.909" y2="74.5217" gradientUnits="userSpaceOnUse">
<stop stop-color="#AB8F39"/>
<stop offset="1" stop-color="#FDDB5C"/>
</linearGradient>
<linearGradient id="paint5_linear_70_770" x1="373.263" y1="159.955" x2="373.263" y2="74.5217" gradientUnits="userSpaceOnUse">
<stop stop-color="#AB8F39"/>
<stop offset="1" stop-color="#FDDB5C"/>
</linearGradient>
<linearGradient id="paint6_linear_70_770" x1="450.723" y1="160.084" x2="450.723" y2="74.2634" gradientUnits="userSpaceOnUse">
<stop stop-color="#AB8F39"/>
<stop offset="1" stop-color="#FDDB5C"/>
</linearGradient>
<linearGradient id="paint7_linear_70_770" x1="544.197" y1="159.955" x2="544.197" y2="74.5217" gradientUnits="userSpaceOnUse">
<stop stop-color="#AB8F39"/>
<stop offset="1" stop-color="#FDDB5C"/>
</linearGradient>
<linearGradient id="paint8_linear_70_770" x1="626.437" y1="159.955" x2="626.437" y2="74.3905" gradientUnits="userSpaceOnUse">
<stop stop-color="#AB8F39"/>
<stop offset="1" stop-color="#FDDB5C"/>
</linearGradient>
<linearGradient id="paint9_linear_70_770" x1="164.776" y1="58.0367" x2="164.776" y2="1.60807" gradientUnits="userSpaceOnUse">
<stop stop-color="#AB8F39"/>
<stop offset="1" stop-color="#FDDB5C"/>
</linearGradient>
<linearGradient id="paint10_linear_70_770" x1="226.228" y1="59.1858" x2="226.228" y2="0.373601" gradientUnits="userSpaceOnUse">
<stop stop-color="#AB8F39"/>
<stop offset="1" stop-color="#FDDB5C"/>
</linearGradient>
<linearGradient id="paint11_linear_70_770" x1="275.502" y1="58.0367" x2="275.502" y2="1.6944" gradientUnits="userSpaceOnUse">
<stop stop-color="#AB8F39"/>
<stop offset="1" stop-color="#FDDB5C"/>
</linearGradient>
<linearGradient id="paint12_linear_70_770" x1="316.876" y1="58.0367" x2="316.876" y2="1.69445" gradientUnits="userSpaceOnUse">
<stop stop-color="#AB8F39"/>
<stop offset="1" stop-color="#FDDB5C"/>
</linearGradient>
<linearGradient id="paint13_linear_70_770" x1="362.423" y1="58.0367" x2="362.423" y2="1.6944" gradientUnits="userSpaceOnUse">
<stop stop-color="#AB8F39"/>
<stop offset="1" stop-color="#FDDB5C"/>
</linearGradient>
<linearGradient id="paint14_linear_70_770" x1="408.033" y1="58.0367" x2="408.033" y2="1.69445" gradientUnits="userSpaceOnUse">
<stop stop-color="#AB8F39"/>
<stop offset="1" stop-color="#FDDB5C"/>
</linearGradient>
<linearGradient id="paint15_linear_70_770" x1="456.242" y1="58.0367" x2="456.242" y2="1.60807" gradientUnits="userSpaceOnUse">
<stop stop-color="#AB8F39"/>
<stop offset="1" stop-color="#FDDB5C"/>
</linearGradient>
<linearGradient id="paint16_linear_70_770" x1="518.845" y1="58.1219" x2="518.845" y2="1.5241" gradientUnits="userSpaceOnUse">
<stop stop-color="#AB8F39"/>
<stop offset="1" stop-color="#FDDB5C"/>
</linearGradient>
<linearGradient id="paint17_linear_70_770" x1="577.552" y1="58.0367" x2="577.552" y2="1.69445" gradientUnits="userSpaceOnUse">
<stop stop-color="#AB8F39"/>
<stop offset="1" stop-color="#FDDB5C"/>
</linearGradient>
<linearGradient id="paint18_linear_70_770" x1="639.622" y1="59.1857" x2="639.622" y2="0.373626" gradientUnits="userSpaceOnUse">
<stop stop-color="#AB8F39"/>
<stop offset="1" stop-color="#FDDB5C"/>
</linearGradient>
<linearGradient id="paint19_linear_70_770" x1="32.1107" y1="161.697" x2="32.1107" y2="72.648" gradientUnits="userSpaceOnUse">
<stop stop-color="#AB8F39"/>
<stop offset="1" stop-color="#FDDB5C"/>
</linearGradient>
<linearGradient id="paint20_linear_70_770" x1="113.669" y1="161.697" x2="113.669" y2="74.5217" gradientUnits="userSpaceOnUse">
<stop stop-color="#AB8F39"/>
<stop offset="1" stop-color="#FDDB5C"/>
</linearGradient>
<linearGradient id="paint21_linear_70_770" x1="198.296" y1="159.955" x2="198.296" y2="74.3905" gradientUnits="userSpaceOnUse">
<stop stop-color="#AB8F39"/>
<stop offset="1" stop-color="#FDDB5C"/>
</linearGradient>
<linearGradient id="paint22_linear_70_770" x1="302.909" y1="159.955" x2="302.909" y2="74.5217" gradientUnits="userSpaceOnUse">
<stop stop-color="#AB8F39"/>
<stop offset="1" stop-color="#FDDB5C"/>
</linearGradient>
<linearGradient id="paint23_linear_70_770" x1="373.263" y1="159.955" x2="373.263" y2="74.5217" gradientUnits="userSpaceOnUse">
<stop stop-color="#AB8F39"/>
<stop offset="1" stop-color="#FDDB5C"/>
</linearGradient>
<linearGradient id="paint24_linear_70_770" x1="450.723" y1="160.084" x2="450.723" y2="74.2634" gradientUnits="userSpaceOnUse">
<stop stop-color="#AB8F39"/>
<stop offset="1" stop-color="#FDDB5C"/>
</linearGradient>
<linearGradient id="paint25_linear_70_770" x1="544.197" y1="159.955" x2="544.197" y2="74.5217" gradientUnits="userSpaceOnUse">
<stop stop-color="#AB8F39"/>
<stop offset="1" stop-color="#FDDB5C"/>
</linearGradient>
<linearGradient id="paint26_linear_70_770" x1="626.437" y1="159.955" x2="626.437" y2="74.3905" gradientUnits="userSpaceOnUse">
<stop stop-color="#AB8F39"/>
<stop offset="1" stop-color="#FDDB5C"/>
</linearGradient>
</defs>
</svg>
