<svg width="670" height="162" viewBox="0 0 670 162" fill="none" xmlns="http://www.w3.org/2000/svg">
<path d="M172.9 0.300049L142 58.3C135.3 58.3 145.3 58.3 135.9 58.4C126.9 58.4 95.5 58.4 86.5 58.5C86.1 58.5 85.7 58.5 85.3 58.5C83.8 58.4 82.7 57.2001 82.7 55.8C82.7 54.3 83.9 53.2 85.5 53.2C88.6 53.2 91.7 53.2 94.8 53.2C97.2 53.2 136.3 53.2 138.7 53.2C140.5 53.2 141.8 52.1 141.8 50.5C141.8 48.9 140.4 47.8 138.6 47.8C133.2 47.8 91 47.8 85.6 47.8C83.6 47.8 82.5 46.6 82.7 44.8C82.9 43.4 83.8 42.5 85.4 42.5C86.8 42.5 88.2 42.5 89.7 42.5C105.3 42.5 125.3 42.5 130.8 42.5C132.6 42.5 133.8 41.4 133.8 39.8C133.8 38.3 132.6 37.2 130.8 37.2C129.5 37.2 128.2 37.2 127 37.2C125.2 37.2 124 36.2 124 34.6C124 33 125.1 31.9 126.9 31.9C129.1 31.9 131.2 31.9 133.4 31.9C135.5 31.9 137.5 31.9 139.6 31.9C141.2 31.9 142.3 31.2 142.7 29.8C143.4 27.6 142.1 26 139.7 26C135.4 26 114.1 26 99.9 26C92.3 26 84.7 26 77.1 26C75.6 26 74.5 25.2 74.3 23.9C74.1 22.2 75.1 21 77 21C80.8 21 84.6 21 88.3 21C93.2 21 132 21 136.9 21C138.6 21 139.8 20 139.8 18.6C139.8 17.1 138.6 16 136.9 16C131 16 41.9 16 36.1 16C34 16 32.8 14.8 33 13C33.2 11.6 34.4 10.7 36.2 10.6C41.3 10.6 95.7 10.6 100.8 10.6C108.3 10.6 115.8 10.6 123.4 10.6C125.1 10.6 126.1 9.69995 126.2 8.19995C126.2 6.79995 125 5.5 123.5 5.5C121.5 5.4 119.5 5.5 117.4 5.5C99 5.5 31.2 5.59998 12.7 5.59998C10.9 5.59998 9.80001 4.69998 9.70001 3.09998C9.70001 1.59998 10.9 0.5 12.7 0.5C25 0.5 86.6 0.400024 98.8 0.400024H103.1H126.9" fill="url(#paint0_linear_1_88)"/>
<path d="M32 162C14.5 162 3.8 154.5 0 139.5L17.6 132.8C19.1 136.9 21 139.8 23.4 141.5C25.8 143.2 29 144.1 33.2 144.1C36.6 144.1 39.4 143.4 41.4 141.9C43.4 140.5 44.5 138.5 44.5 136C44.5 133.3 43.4 131.2 41.1 129.7C38.9 128.2 34.4 126.7 27.8 125.1C18.9 122.9 12.4 119.7 8.2 115.4C4 111.1 1.90001 105.4 1.90001 98.3C1.90001 90.6 4.60001 84.4 9.90001 79.8C15.2 75.2 22.6 72.9 32 72.9C39.5 72.9 45.7 74.4 50.6 77.5C55.5 80.6 59 85.2 61 91.3L43.6 98.7C42 93.4 37.9 90.8 31.3 90.8C28.2 90.8 25.8 91.4 24.1 92.6C22.4 93.8 21.6 95.4 21.6 97.4C21.6 99.7 22.8 101.6 25.2 102.9C27.6 104.3 32.3 105.8 39.3 107.6C48.1 109.9 54.4 113.3 58.3 117.6C62.2 121.9 64.1 127.9 64.1 135.5C64.1 143.5 61.1 149.9 55.3 154.7C49.5 159.6 41.7 162 32 162Z" fill="url(#paint1_linear_1_88)"/>
<path d="M113.5 162C102 162 93.2 158.9 86.9 152.8C80.6 146.6 77.4 137.9 77.4 126.5V74.9H98.2V125C98.2 131.2 99.5 135.9 102.2 139C104.9 142.2 108.6 143.7 113.5 143.7C118.1 143.7 122 142.1 124.9 138.8C127.9 135.5 129.4 130.9 129.4 124.9V74.8H149.9V126.4C149.9 137.6 146.5 146.3 139.8 152.6C133.1 158.9 124.3 162 113.5 162Z" fill="url(#paint2_linear_1_88)"/>
<path d="M219.8 160.3L214.4 146H181.9L176.3 160.3H155.4L192.5 74.7H203.9L241.1 160.3H219.8ZM188.5 129.1H208.1L198.4 103.4L188.5 129.1Z" fill="url(#paint3_linear_1_88)"/>
<path d="M311.8 160.3L296.4 128.9H292.1V160.3H271.3V74.9H300.2C309.8 74.9 317.4 77.2 322.9 81.7C328.4 86.2 331.1 92.6 331.1 100.7C331.1 106.2 329.8 111.1 327.1 115.4C324.5 119.7 320.8 123 316.2 125.4L334.5 160.3H311.8ZM292.1 91.9V113.3H297.8C301.7 113.3 304.8 112.4 307.1 110.5C309.4 108.6 310.6 106.1 310.6 102.8C310.6 99.4 309.5 96.8 307.2 94.8C305 92.8 301.9 91.8 298.1 91.8H292.1V91.9Z" fill="url(#paint4_linear_1_88)"/>
<path d="M367.7 142.6H399.6V160.3H346.9V74.9H398V92.6H367.7V107.7H395.1V125.5H367.7V142.6Z" fill="url(#paint5_linear_1_88)"/>
<path d="M467.4 74.8H487.1V160.4H475.7L434.3 112.9V160.2H414.3V74.5H426L467.4 122V74.8Z" fill="url(#paint6_linear_1_88)"/>
<path d="M536.3 74.8C543.8 74.8 550.6 75.9 556.5 78.1C562.4 80.3 567.2 83.3 571 87.2C574.7 91.1 577.6 95.5 579.5 100.7C581.4 105.8 582.4 111.4 582.4 117.4C582.4 123.5 581.4 129.2 579.3 134.4C577.2 139.6 574.3 144.1 570.5 148C566.7 151.9 561.9 154.9 556 157C550.1 159.2 543.6 160.3 536.4 160.3H506.2V74.9H536.3V74.8ZM536.3 142.4C544.6 142.4 550.9 140 555.3 135.3C559.7 130.6 561.9 124.6 561.9 117.3C561.9 110.1 559.7 104.1 555.3 99.5C550.9 94.9 544.6 92.6 536.3 92.6H526.9V142.4H536.3Z" fill="url(#paint7_linear_1_88)"/>
<path d="M648 160.3L642.6 146H610.1L604.5 160.3H583.6L620.7 74.7H632.1L669.3 160.3H648ZM616.7 129.1H636.3L626.6 103.4L616.7 129.1Z" fill="url(#paint8_linear_1_88)"/>
<path d="M178.7 58.3L176.9 48.9H155.9L150.6 58.3H136.8L171 1.90002H178.6L192.9 58.3H178.7ZM162.1 37.8H174.7L171.5 21.1L162.1 37.8Z" fill="url(#paint9_linear_1_88)"/>
<path d="M224.7 59.5C216.6 59.5 210.2 57.1 205.4 52.3C200.6 47.5 198.2 40.7999 198.2 32.2C198.2 27.8 199 23.6 200.5 19.7C202 15.8 204.2 12.5 206.9 9.69995C209.6 6.89995 212.9 4.69998 216.8 3.09998C220.7 1.49998 224.9 0.699951 229.4 0.699951C241.8 0.699951 250 5.89995 254.1 16.2L241.8 21.7C239.7 15.8 235.2 12.9 228.4 12.9C225 12.9 222.1 13.8 219.6 15.5C217.1 17.2 215.2 19.5 213.9 22.3C212.6 25.1 212 28.3 212 31.8C212 36.5 213.2 40.2999 215.7 43.2C218.2 46 221.7 47.5 226.2 47.5C229.6 47.5 232.4 46.9 234.5 45.6C236.6 44.3 238.5 42.5 240 40.3L249.6 47C244.6 55.3 236.3 59.5 224.7 59.5Z" fill="url(#paint10_linear_1_88)"/>
<path d="M295.1 13.7H275.5L273.7 23.7H291.5L289.4 35.5H271.7L269.7 46.8H290.5L288.4 58.5H254L263.9 2.19995H297.3L295.1 13.7Z" fill="url(#paint11_linear_1_88)"/>
<path d="M313.8 45.7H335.9L333.6 58.3H297.9L307.8 2H321.5L313.8 45.7Z" fill="url(#paint12_linear_1_88)"/>
<path d="M382 13.7H362.4L360.6 23.7H378.3L376.2 35.5H358.5L356.5 46.8H377.3L375.2 58.5H340.8L350.7 2.19995H384.1L382 13.7Z" fill="url(#paint13_linear_1_88)"/>
<path d="M431.3 18.1C431.3 22.5 430.2 26.2 428.1 29.3C426 32.4 423 34.6 419.1 36L426.8 58.3H412.5L406.3 37.6H402.2L398.5 58.3H384.8L394.7 2H413.4C419.1 2 423.5 3.39995 426.6 6.19995C429.7 9.09995 431.3 13 431.3 18.1ZM406.4 13.2L404 27.3H408.3C411.2 27.3 413.4 26.6 415 25.2C416.6 23.8 417.4 21.8 417.4 19.3C417.4 17.3 416.8 15.7 415.6 14.7C414.4 13.7 412.7 13.2 410.6 13.2H406.4Z" fill="url(#paint14_linear_1_88)"/>
<path d="M470.1 58.3L468.3 48.9H447.3L442 58.3H428.2L462.4 1.90002H470L484.3 58.3H470.1ZM453.6 37.8H466.2L463 21.1L453.6 37.8Z" fill="url(#paint15_linear_1_88)"/>
<path d="M534.6 2H547.6L537.7 58.4H530.2L508.8 26.8L503.3 58.3H490.1L500 1.80005H507.8L529.1 33.3L534.6 2Z" fill="url(#paint16_linear_1_88)"/>
<path d="M579.6 2C583.9 2 587.7 2.60005 591 3.80005C594.3 5.00005 597 6.60005 599 8.80005C601 11 602.6 13.5 603.6 16.4C604.6 19.3 605.2 22.5 605.2 26.1C605.2 36.1 602 44 595.7 49.7C589.4 55.5 580.7 58.3 569.6 58.3H549.9L559.8 2H579.6ZM571.8 46.6C578.2 46.6 583 44.9 586.4 41.4C589.8 37.9 591.5 33.2 591.5 27.2C591.5 23.2 590.3 19.9 588 17.5C585.7 15.1 582.2 13.8 577.5 13.8H571.5L565.8 46.6H571.8Z" fill="url(#paint17_linear_1_88)"/>
<path d="M637.8 59.5C632.2 59.5 627.2 58.3 623 56C618.8 53.6 615.5 50.4 613.3 46.3C611.1 42.2001 610 37.5 610 32.3C610 28 610.7 24 612.2 20.1C613.6 16.3 615.7 12.9 618.3 10C620.9 7.1 624.2 4.79998 628.2 3.09998C632.2 1.39998 636.5 0.599976 641.3 0.599976C646.9 0.599976 651.9 1.79998 656.2 4.09998C660.5 6.39998 663.7 9.69995 666 13.7C668.2 17.8 669.4 22.4 669.4 27.7C669.4 32 668.7 36 667.2 39.9C665.8 43.7 663.7 47.1 661.1 50C658.5 52.9 655.1 55.2 651.1 56.9C647 58.6 642.6 59.5 637.8 59.5ZM638.9 47.3C643.8 47.3 647.8 45.6 650.8 42.3C653.8 38.9 655.3 34.3 655.3 28.3C655.3 23.5 654 19.8 651.4 17C648.8 14.2 645 12.8 640.2 12.8C635.5 12.8 631.6 14.5 628.5 17.9C625.4 21.3 623.8 25.9 623.8 31.8C623.8 36.5 625.1 40.3 627.8 43.1C630.4 45.9 634.2 47.3 638.9 47.3Z" fill="url(#paint18_linear_1_88)"/>
<path d="M32 162C14.5 162 3.8 154.5 0 139.5L17.6 132.8C19.1 136.9 21 139.8 23.4 141.5C25.8 143.2 29 144.1 33.2 144.1C36.6 144.1 39.4 143.4 41.4 141.9C43.4 140.5 44.5 138.5 44.5 136C44.5 133.3 43.4 131.2 41.1 129.7C38.9 128.2 34.4 126.7 27.8 125.1C18.9 122.9 12.4 119.7 8.2 115.4C4 111.1 1.90001 105.4 1.90001 98.3C1.90001 90.6 4.60001 84.4 9.90001 79.8C15.2 75.2 22.6 72.9 32 72.9C39.5 72.9 45.7 74.4 50.6 77.5C55.5 80.6 59 85.2 61 91.3L43.6 98.7C42 93.4 37.9 90.8 31.3 90.8C28.2 90.8 25.8 91.4 24.1 92.6C22.4 93.8 21.6 95.4 21.6 97.4C21.6 99.7 22.8 101.6 25.2 102.9C27.6 104.3 32.3 105.8 39.3 107.6C48.1 109.9 54.4 113.3 58.3 117.6C62.2 121.9 64.1 127.9 64.1 135.5C64.1 143.5 61.1 149.9 55.3 154.7C49.5 159.6 41.7 162 32 162Z" fill="url(#paint19_linear_1_88)"/>
<path d="M113.5 162C102 162 93.2 158.9 86.9 152.8C80.6 146.6 77.4 137.9 77.4 126.5V74.9H98.2V125C98.2 131.2 99.5 135.9 102.2 139C104.9 142.2 108.6 143.7 113.5 143.7C118.1 143.7 122 142.1 124.9 138.8C127.9 135.5 129.4 130.9 129.4 124.9V74.8H149.9V126.4C149.9 137.6 146.5 146.3 139.8 152.6C133.1 158.9 124.3 162 113.5 162Z" fill="url(#paint20_linear_1_88)"/>
<path d="M219.8 160.3L214.4 146H181.9L176.3 160.3H155.4L192.5 74.7H203.9L241.1 160.3H219.8ZM188.5 129.1H208.1L198.4 103.4L188.5 129.1Z" fill="url(#paint21_linear_1_88)"/>
<path d="M311.8 160.3L296.4 128.9H292.1V160.3H271.3V74.9H300.2C309.8 74.9 317.4 77.2 322.9 81.7C328.4 86.2 331.1 92.6 331.1 100.7C331.1 106.2 329.8 111.1 327.1 115.4C324.5 119.7 320.8 123 316.2 125.4L334.5 160.3H311.8ZM292.1 91.9V113.3H297.8C301.7 113.3 304.8 112.4 307.1 110.5C309.4 108.6 310.6 106.1 310.6 102.8C310.6 99.4 309.5 96.8 307.2 94.8C305 92.8 301.9 91.8 298.1 91.8H292.1V91.9Z" fill="url(#paint22_linear_1_88)"/>
<path d="M367.7 142.6H399.6V160.3H346.9V74.9H398V92.6H367.7V107.7H395.1V125.5H367.7V142.6Z" fill="url(#paint23_linear_1_88)"/>
<path d="M467.4 74.8H487.1V160.4H475.7L434.3 112.9V160.2H414.3V74.5H426L467.4 122V74.8Z" fill="url(#paint24_linear_1_88)"/>
<path d="M536.3 74.8C543.8 74.8 550.6 75.9 556.5 78.1C562.4 80.3 567.2 83.3 571 87.2C574.7 91.1 577.6 95.5 579.5 100.7C581.4 105.8 582.4 111.4 582.4 117.4C582.4 123.5 581.4 129.2 579.3 134.4C577.2 139.6 574.3 144.1 570.5 148C566.7 151.9 561.9 154.9 556 157C550.1 159.2 543.6 160.3 536.4 160.3H506.2V74.9H536.3V74.8ZM536.3 142.4C544.6 142.4 550.9 140 555.3 135.3C559.7 130.6 561.9 124.6 561.9 117.3C561.9 110.1 559.7 104.1 555.3 99.5C550.9 94.9 544.6 92.6 536.3 92.6H526.9V142.4H536.3Z" fill="url(#paint25_linear_1_88)"/>
<path d="M648 160.3L642.6 146H610.1L604.5 160.3H583.6L620.7 74.7H632.1L669.3 160.3H648ZM616.7 129.1H636.3L626.6 103.4L616.7 129.1Z" fill="url(#paint26_linear_1_88)"/>
<defs>
<linearGradient id="paint0_linear_1_88" x1="91.4281" y1="58.4486" x2="91.4281" y2="-0.0086518" gradientUnits="userSpaceOnUse">
<stop stop-color="#AB8F39"/>
<stop offset="1" stop-color="#FDDB5C"/>
</linearGradient>
<linearGradient id="paint1_linear_1_88" x1="32.1107" y1="161.997" x2="32.1107" y2="72.948" gradientUnits="userSpaceOnUse">
<stop stop-color="#AB8F39"/>
<stop offset="1" stop-color="#FDDB5C"/>
</linearGradient>
<linearGradient id="paint2_linear_1_88" x1="113.669" y1="161.997" x2="113.669" y2="74.8217" gradientUnits="userSpaceOnUse">
<stop stop-color="#AB8F39"/>
<stop offset="1" stop-color="#FDDB5C"/>
</linearGradient>
<linearGradient id="paint3_linear_1_88" x1="198.296" y1="160.255" x2="198.296" y2="74.6906" gradientUnits="userSpaceOnUse">
<stop stop-color="#AB8F39"/>
<stop offset="1" stop-color="#FDDB5C"/>
</linearGradient>
<linearGradient id="paint4_linear_1_88" x1="302.909" y1="160.255" x2="302.909" y2="74.8217" gradientUnits="userSpaceOnUse">
<stop stop-color="#AB8F39"/>
<stop offset="1" stop-color="#FDDB5C"/>
</linearGradient>
<linearGradient id="paint5_linear_1_88" x1="373.263" y1="160.255" x2="373.263" y2="74.8217" gradientUnits="userSpaceOnUse">
<stop stop-color="#AB8F39"/>
<stop offset="1" stop-color="#FDDB5C"/>
</linearGradient>
<linearGradient id="paint6_linear_1_88" x1="450.723" y1="160.384" x2="450.723" y2="74.5634" gradientUnits="userSpaceOnUse">
<stop stop-color="#AB8F39"/>
<stop offset="1" stop-color="#FDDB5C"/>
</linearGradient>
<linearGradient id="paint7_linear_1_88" x1="544.197" y1="160.255" x2="544.197" y2="74.8218" gradientUnits="userSpaceOnUse">
<stop stop-color="#AB8F39"/>
<stop offset="1" stop-color="#FDDB5C"/>
</linearGradient>
<linearGradient id="paint8_linear_1_88" x1="626.437" y1="160.255" x2="626.437" y2="74.6906" gradientUnits="userSpaceOnUse">
<stop stop-color="#AB8F39"/>
<stop offset="1" stop-color="#FDDB5C"/>
</linearGradient>
<linearGradient id="paint9_linear_1_88" x1="164.776" y1="58.3367" x2="164.776" y2="1.90812" gradientUnits="userSpaceOnUse">
<stop stop-color="#AB8F39"/>
<stop offset="1" stop-color="#FDDB5C"/>
</linearGradient>
<linearGradient id="paint10_linear_1_88" x1="226.228" y1="59.4858" x2="226.228" y2="0.67365" gradientUnits="userSpaceOnUse">
<stop stop-color="#AB8F39"/>
<stop offset="1" stop-color="#FDDB5C"/>
</linearGradient>
<linearGradient id="paint11_linear_1_88" x1="275.502" y1="58.3367" x2="275.502" y2="1.99445" gradientUnits="userSpaceOnUse">
<stop stop-color="#AB8F39"/>
<stop offset="1" stop-color="#FDDB5C"/>
</linearGradient>
<linearGradient id="paint12_linear_1_88" x1="316.876" y1="58.3367" x2="316.876" y2="1.9945" gradientUnits="userSpaceOnUse">
<stop stop-color="#AB8F39"/>
<stop offset="1" stop-color="#FDDB5C"/>
</linearGradient>
<linearGradient id="paint13_linear_1_88" x1="362.423" y1="58.3367" x2="362.423" y2="1.99445" gradientUnits="userSpaceOnUse">
<stop stop-color="#AB8F39"/>
<stop offset="1" stop-color="#FDDB5C"/>
</linearGradient>
<linearGradient id="paint14_linear_1_88" x1="408.033" y1="58.3367" x2="408.033" y2="1.9945" gradientUnits="userSpaceOnUse">
<stop stop-color="#AB8F39"/>
<stop offset="1" stop-color="#FDDB5C"/>
</linearGradient>
<linearGradient id="paint15_linear_1_88" x1="456.242" y1="58.3367" x2="456.242" y2="1.90812" gradientUnits="userSpaceOnUse">
<stop stop-color="#AB8F39"/>
<stop offset="1" stop-color="#FDDB5C"/>
</linearGradient>
<linearGradient id="paint16_linear_1_88" x1="518.845" y1="58.4219" x2="518.845" y2="1.82415" gradientUnits="userSpaceOnUse">
<stop stop-color="#AB8F39"/>
<stop offset="1" stop-color="#FDDB5C"/>
</linearGradient>
<linearGradient id="paint17_linear_1_88" x1="577.552" y1="58.3367" x2="577.552" y2="1.9945" gradientUnits="userSpaceOnUse">
<stop stop-color="#AB8F39"/>
<stop offset="1" stop-color="#FDDB5C"/>
</linearGradient>
<linearGradient id="paint18_linear_1_88" x1="639.622" y1="59.4858" x2="639.622" y2="0.673675" gradientUnits="userSpaceOnUse">
<stop stop-color="#AB8F39"/>
<stop offset="1" stop-color="#FDDB5C"/>
</linearGradient>
<linearGradient id="paint19_linear_1_88" x1="32.1107" y1="161.997" x2="32.1107" y2="72.948" gradientUnits="userSpaceOnUse">
<stop stop-color="#AB8F39"/>
<stop offset="1" stop-color="#FDDB5C"/>
</linearGradient>
<linearGradient id="paint20_linear_1_88" x1="113.669" y1="161.997" x2="113.669" y2="74.8217" gradientUnits="userSpaceOnUse">
<stop stop-color="#AB8F39"/>
<stop offset="1" stop-color="#FDDB5C"/>
</linearGradient>
<linearGradient id="paint21_linear_1_88" x1="198.296" y1="160.255" x2="198.296" y2="74.6906" gradientUnits="userSpaceOnUse">
<stop stop-color="#AB8F39"/>
<stop offset="1" stop-color="#FDDB5C"/>
</linearGradient>
<linearGradient id="paint22_linear_1_88" x1="302.909" y1="160.255" x2="302.909" y2="74.8217" gradientUnits="userSpaceOnUse">
<stop stop-color="#AB8F39"/>
<stop offset="1" stop-color="#FDDB5C"/>
</linearGradient>
<linearGradient id="paint23_linear_1_88" x1="373.263" y1="160.255" x2="373.263" y2="74.8217" gradientUnits="userSpaceOnUse">
<stop stop-color="#AB8F39"/>
<stop offset="1" stop-color="#FDDB5C"/>
</linearGradient>
<linearGradient id="paint24_linear_1_88" x1="450.723" y1="160.384" x2="450.723" y2="74.5634" gradientUnits="userSpaceOnUse">
<stop stop-color="#AB8F39"/>
<stop offset="1" stop-color="#FDDB5C"/>
</linearGradient>
<linearGradient id="paint25_linear_1_88" x1="544.197" y1="160.255" x2="544.197" y2="74.8218" gradientUnits="userSpaceOnUse">
<stop stop-color="#AB8F39"/>
<stop offset="1" stop-color="#FDDB5C"/>
</linearGradient>
<linearGradient id="paint26_linear_1_88" x1="626.437" y1="160.255" x2="626.437" y2="74.6906" gradientUnits="userSpaceOnUse">
<stop stop-color="#AB8F39"/>
<stop offset="1" stop-color="#FDDB5C"/>
</linearGradient>
</defs>
</svg>
