<svg width="747" height="830" viewBox="0 0 747 830" fill="none" xmlns="http://www.w3.org/2000/svg">
<path opacity="0.15" d="M688.6 439.4C703.8 460.7 663.5 525.2 634.6 523.8C626.4 523.4 626.1 518.1 605.2 510.9C585.6 504.1 576.9 505.6 567.6 496.8C566.6 495.9 556.5 486 557 476.8C558.7 447.6 669.5 412.8 688.6 439.4ZM468.9 459.1C391.8 577.7 593.3 568.9 569.3 715.1C679.9 518.7 478.7 559.1 468.9 459.1ZM703.8 405.2C703.8 405.2 732 421.6 740.2 357L719.1 365.2L703.8 405.2ZM746.1 325.4C748.1 351.2 642.7 336 642.7 336C645 357.1 696.7 371.2 696.7 371.2L691.8 407.1C663.8 398.2 551.1 460.4 525.2 429.9C492.3 368.8 548.7 365.3 539.3 345.3C529.9 325.3 383.1 293.6 405.4 407.1C320.9 326.5 389 195 389 195C331.4 112.8 300.3 215.2 324.4 249C269.2 200.8 313.8 146.8 313.8 146.8C313.8 146.8 359.6 111.6 404.2 146.8C405.8 145.8 407.4 144.8 409 143.9C378 112.8 342.6 75.5 316.1 77.9C311.2 83.9 315.6 90.5 315.6 90.5C315.6 90.5 221.2 34.9 123.6 74.7C176 13.1 297.1 24 297.1 24C297.1 24 293.8 9.29996 275.3 4.39996C388.8 -19.6 464.6 63.3 464.6 63.3C464.6 63.3 467.9 43.7 435.7 14.2C475.7 18.9 545 58.2 550 142.1C589.5 157.7 619.1 180 624.5 184.5C635.8 193.9 624.5 223.3 624.5 223.3C624.5 223.3 727.3 277.2 746.1 325.4ZM607.5 269C607.5 269 549.9 178.6 481.8 226.7C505.2 269 584 247.8 607.5 269ZM406.4 424.9C375.1 440.2 375.8 495.5 375.8 495.5C298 427.9 338 315.1 338 315.1C184.5 348.6 210.7 552.2 210.7 552.2C224.5 491.1 265.3 470 265.3 470C249.3 648.9 404.2 638 388.2 750C427.5 739.1 439.1 675.1 439.1 675.1C508.2 733.3 461.6 830 461.6 830C685.7 617.7 371.5 593.7 406.4 424.9ZM274 288.2C274 288.2 202.7 291.1 163.4 343.5C168 289.6 255 232.6 281.2 237.9C281.2 237.9 -3.40004 167.5 0.399961 478.8C0.399961 478.8 23.7 384.2 83.3 381.3C83.3 381.3 10.6 510.8 94.9 606.8C94.9 606.8 76 525.3 109.4 478.8C109.4 478.8 116.7 621.4 246.1 669.4C246.4 669.3 96.5 436.5 274 288.2ZM281.3 210.5C244.7 159.9 209 159.9 209 159.9C209 159.9 238.7 146.1 281.3 162.5C269.3 132.5 230 127.6 230 127.6C230 127.6 269.3 108.2 348.4 127.6C288.9 68.1 24.3 42.5 4.20001 295.1C100.1 149.4 281.3 210.5 281.3 210.5Z" fill="url(#paint0_linear_1_1075)"/>
<defs>
<linearGradient id="paint0_linear_1_1075" x1="373.3" y1="830.064" x2="373.3" y2="-0.0640361" gradientUnits="userSpaceOnUse">
<stop stop-color="#AB8F39" stop-opacity="0"/>
<stop offset="1" stop-color="#FDDB5C"/>
</linearGradient>
</defs>
</svg>
