<svg width="151" height="70" viewBox="0 0 151 70" fill="none" xmlns="http://www.w3.org/2000/svg">
<path d="M88.4 27.9001C90.4 28.5001 91.9001 29.5 93.1001 31C94.3001 32.5 94.8 34.4001 94.8 36.8001C94.8 40.2001 93.6001 42.8 91.2001 44.6C88.8001 46.4 85.4 47.3001 81 47.3001H69.5V11.3H80.8C84.6 11.3 87.6001 12.1 89.6001 13.6C91.7001 15.2 92.7001 17.4 92.7001 20.3C92.8001 23.9 91.3 26.4001 88.4 27.9001ZM84.6001 21.8C84.6001 20.5 84.3 19.6001 83.5 18.9001C82.8 18.2001 81.6001 17.9001 80.1001 17.9001H77.8V25.8H80.1001C81.5001 25.8 82.6 25.4001 83.4 24.7001C84.2 24.0001 84.6001 23 84.6001 21.8ZM81.3 40.9001C83 40.9001 84.3001 40.5001 85.1001 39.8001C86.0001 39.0001 86.4 38 86.4 36.6C86.4 35.3 86.0001 34.2001 85.1001 33.4001C84.2001 32.6001 82.9 32.3001 81.3 32.3001L77.8 32.4001V41H81.3V40.9001Z" fill="url(#paint0_linear_1_60)"/>
<path d="M114.8 47.4L108.3 34.2H106.5V47.4H97.7001V11.4H109.8C113.9 11.4 117 12.4 119.4 14.3C121.7 16.2 122.9 18.9 122.9 22.3C122.9 24.6 122.3 26.7 121.2 28.5C120.1 30.3 118.6 31.7 116.6 32.7L124.3 47.4H114.8ZM106.5 18.6V27.6H108.9C110.5 27.6 111.8 27.2 112.8 26.4C113.8 25.6 114.3 24.5 114.3 23.2C114.3 21.8 113.8 20.7 112.9 19.8C112 19 110.7 18.5 109.1 18.5H106.5V18.6Z" fill="url(#paint1_linear_1_60)"/>
<path d="M137.4 48.2C130.3 48.2 126 45.3 124.5 39.5L132.9 36.1C133.3 37.4 133.9 38.4 134.7 39C135.5 39.6 136.5 39.9 137.7 39.9C138.9 39.9 139.9 39.5 140.7 38.8C141.5 38.1 141.9 37 141.9 35.6C141.9 34.2 141.5 33.2 140.7 32.5C139.9 31.8 138.9 31.5 137.7 31.5C135.8 31.5 134.3 32.4 133.1 34.1H125.4V11.4H148.8V20.6H134V25.3C135.7 24.3 137.7 23.8 140.1 23.8C143.6 23.8 146.2 24.8 148 26.9C149.8 29 150.7 31.8 150.7 35.4C150.7 39.4 149.5 42.5 147.2 44.8C145 47.1 141.7 48.2 137.4 48.2Z" fill="url(#paint2_linear_1_60)"/>
<path d="M58.1001 36.8C59.4001 38.6 56.0001 43.9 53.6001 43.8C52.9001 43.8 52.9001 43.3 51.2001 42.7C49.6001 42.1 48.8001 42.3 48.1001 41.5C48.0001 41.4 47.2001 40.6 47.2001 39.8C47.3001 37.5 56.5001 34.6 58.1001 36.8ZM39.8001 38.5C33.4001 48.4 50.1001 47.6 48.1001 59.8C57.3001 43.4 40.6001 46.8 39.8001 38.5ZM59.3001 34C59.3001 34 61.6001 35.4 62.3001 30L60.5 30.7L59.3001 34ZM62.8001 27.4C63.0001 29.5 54.2001 28.3 54.2001 28.3C54.4001 30.1 58.7001 31.2 58.7001 31.2L58.3001 34.2C56.0001 33.5 46.6 38.6 44.5 36.1C41.8 31 46.5001 30.7 45.7001 29.1C44.9001 27.4 32.7001 24.8 34.6001 34.2C27.6001 27.5 33.2001 16.6 33.2001 16.6C28.4001 9.8 25.8001 18.3 27.8001 21.1C23.2001 17.1 26.9001 12.6 26.9001 12.6C26.9001 12.6 30.7001 9.7 34.4001 12.6C34.5 12.5 34.7001 12.4 34.8001 12.4C32.2001 9.8 29.3001 6.70001 27.1001 6.90001C26.7001 7.40001 27.1001 7.90001 27.1001 7.90001C27.1001 7.90001 19.3001 3.3 11.1001 6.6C15.5001 1.5 25.5 2.40001 25.5 2.40001C25.5 2.40001 25.2001 1.2 23.7001 0.800003C33.1001 -1.2 39.4001 5.7 39.4001 5.7C39.4001 5.7 39.7 4.1 37 1.6C40.3 2 46.1 5.3 46.5 12.2C49.8 13.5 52.2001 15.3 52.7001 15.7C53.6001 16.5 52.7001 18.9 52.7001 18.9C52.7001 18.9 61.3001 23.4 62.8001 27.4ZM51.3001 22.7C51.3001 22.7 46.5 15.2 40.9001 19.2C42.8001 22.7 49.4001 20.9 51.3001 22.7ZM34.6001 35.6C32.0001 36.9 32.1001 41.5 32.1001 41.5C25.6001 35.9 29 26.5 29 26.5C16.2 29.3 18.4001 46.2 18.4001 46.2C19.5001 41.1 22.9001 39.4 22.9001 39.4C21.6001 54.3 34.4001 53.4 33.1001 62.7C36.4001 61.8 37.3001 56.5 37.3001 56.5C43.0001 61.3 39.2001 69.4 39.2001 69.4C57.8001 51.7 31.7001 49.7 34.6001 35.6ZM23.6001 24.3C23.6001 24.3 17.7001 24.5 14.4001 28.9C14.8001 24.4 22.0001 19.7 24.2001 20.1C24.2001 20.1 0.600053 14.2 0.900053 40.1C0.900053 40.1 2.80008 32.2 7.80008 32C7.80008 32 1.80008 42.8 8.80008 50.7C8.80008 50.7 7.20003 43.9 10 40.1C10 40.1 10.6001 51.9 21.4001 55.9C21.3001 55.9 8.90013 36.6 23.6001 24.3ZM24.2001 17.8C21.2001 13.6 18.2001 13.6 18.2001 13.6C18.2001 13.6 20.7001 12.5 24.2001 13.8C23.2001 11.3 19.9001 10.9 19.9001 10.9C19.9001 10.9 23.2001 9.3 29.7001 10.9C24.8001 6.00001 2.80013 3.8 1.10013 24.8C9.20013 12.7 24.2001 17.8 24.2001 17.8Z" fill="url(#paint3_linear_1_60)"/>
<path d="M119.8 53L119.6 54.4H117.1L115.9 61.3H114.3L115.5 54.4H113L113.2 53H119.8Z" fill="url(#paint4_linear_1_60)"/>
<path d="M125.6 60.6C125 61.2 124.2 61.5 123 61.5C121.9 61.5 121 61.2 120.5 60.5C120 59.8 119.8 58.9 120 57.8L120.8 53.1H122.4L121.6 57.9C121.5 58.6 121.6 59.2 121.8 59.5C122.1 59.9 122.5 60.1 123.2 60.1C123.8 60.1 124.3 59.9 124.6 59.6C124.9 59.2 125.1 58.7 125.3 57.9L126.2 53.1H127.8L126.9 58.1C126.6 59.1 126.2 60 125.6 60.6Z" fill="url(#paint5_linear_1_60)"/>
<path d="M134.6 55.3C134.6 55.9 134.4 56.5 134.1 56.9C133.8 57.3 133.3 57.7 132.7 57.8L133.9 61.2H132.3L131.2 57.9H130.4L129.8 61.2H128.2L129.7 52.9H132.2C133 52.9 133.6 53.1 134.1 53.5C134.4 54 134.6 54.5 134.6 55.3ZM131.4 56.8C131.9 56.8 132.3 56.7 132.6 56.4C132.9 56.2 133 55.8 133 55.4C133 54.7 132.6 54.3 131.8 54.3H130.9L130.5 56.8H131.4Z" fill="url(#paint6_linear_1_60)"/>
<path d="M140 56.9C140.8 57.2 141.1 57.8 141.1 58.7C141.1 59.5 140.8 60.2 140.2 60.7C139.6 61.2 138.7 61.4 137.6 61.4H135.2L136.7 53.1H138.9C139.7 53.1 140.2 53.3 140.6 53.6C141 53.9 141.2 54.4 141.2 55C141.2 55.5 141.1 55.9 140.9 56.2C140.7 56.4 140.4 56.7 140 56.9ZM137.9 60.1C138.5 60.1 138.9 60 139.2 59.8C139.5 59.6 139.6 59.2 139.6 58.8C139.6 58.4 139.5 58.2 139.3 58C139.1 57.8 138.8 57.7 138.3 57.7H137.4L137 60.1H137.9ZM139.8 55.2C139.8 54.6 139.4 54.3 138.7 54.3H138.1L137.7 56.5H138.3C138.8 56.5 139.2 56.4 139.5 56.1C139.6 55.8 139.8 55.5 139.8 55.2Z" fill="url(#paint7_linear_1_60)"/>
<path d="M146.3 61.4C145.1 61.4 144.1 61 143.4 60.3C142.7 59.6 142.3 58.6 142.3 57.5C142.3 57 142.4 56.6 142.5 56.1C142.6 55.6 142.8 55.2 143.1 54.8C143.4 54.4 143.7 54.1 144 53.8C144.4 53.5 144.8 53.3 145.3 53.1C145.8 52.9 146.3 52.8 146.9 52.8C148.1 52.8 149.1 53.2 149.8 53.9C150.5 54.6 150.9 55.6 150.9 56.7C150.9 57.2 150.8 57.7 150.7 58.1C150.6 58.6 150.4 59 150.1 59.4C149.8 59.8 149.5 60.1 149.2 60.4C148.8 60.7 148.4 60.9 147.9 61.1C147.4 61.4 146.9 61.4 146.3 61.4ZM146.5 60C147.1 60 147.6 59.9 148 59.6C148.4 59.3 148.8 58.9 149 58.5C149.2 58 149.3 57.5 149.3 56.9C149.3 56.1 149.1 55.5 148.6 55C148.1 54.5 147.5 54.3 146.7 54.3C146.3 54.3 145.9 54.4 145.5 54.6C145.1 54.8 144.8 55 144.6 55.3C144.4 55.6 144.2 55.9 144.1 56.3C144 56.7 143.9 57.1 143.9 57.5C143.9 58.3 144.1 58.9 144.6 59.4C145 59.8 145.7 60 146.5 60Z" fill="url(#paint8_linear_1_60)"/>
<defs>
<linearGradient id="paint0_linear_1_60" x1="82.108" y1="47.3679" x2="82.108" y2="11.4103" gradientUnits="userSpaceOnUse">
<stop stop-color="#AB8F39"/>
<stop offset="1" stop-color="#FDDB5C"/>
</linearGradient>
<linearGradient id="paint1_linear_1_60" x1="111.083" y1="47.3678" x2="111.083" y2="11.4103" gradientUnits="userSpaceOnUse">
<stop stop-color="#AB8F39"/>
<stop offset="1" stop-color="#FDDB5C"/>
</linearGradient>
<linearGradient id="paint2_linear_1_60" x1="137.645" y1="48.2368" x2="137.645" y2="11.4082" gradientUnits="userSpaceOnUse">
<stop stop-color="#AB8F39"/>
<stop offset="1" stop-color="#FDDB5C"/>
</linearGradient>
<linearGradient id="paint3_linear_1_60" x1="31.8565" y1="69.3006" x2="31.8565" y2="0.321701" gradientUnits="userSpaceOnUse">
<stop stop-color="#AB8F39"/>
<stop offset="1" stop-color="#FDDB5C"/>
</linearGradient>
<linearGradient id="paint4_linear_1_60" x1="116.382" y1="61.3018" x2="116.382" y2="53.0076" gradientUnits="userSpaceOnUse">
<stop stop-color="#AB8F39"/>
<stop offset="1" stop-color="#FDDB5C"/>
</linearGradient>
<linearGradient id="paint5_linear_1_60" x1="123.816" y1="61.4711" x2="123.816" y2="53.0076" gradientUnits="userSpaceOnUse">
<stop stop-color="#AB8F39"/>
<stop offset="1" stop-color="#FDDB5C"/>
</linearGradient>
<linearGradient id="paint6_linear_1_60" x1="131.391" y1="61.3018" x2="131.391" y2="53.0076" gradientUnits="userSpaceOnUse">
<stop stop-color="#AB8F39"/>
<stop offset="1" stop-color="#FDDB5C"/>
</linearGradient>
<linearGradient id="paint7_linear_1_60" x1="138.271" y1="61.3018" x2="138.271" y2="53.0076" gradientUnits="userSpaceOnUse">
<stop stop-color="#AB8F39"/>
<stop offset="1" stop-color="#FDDB5C"/>
</linearGradient>
<linearGradient id="paint8_linear_1_60" x1="146.584" y1="61.446" x2="146.584" y2="52.8258" gradientUnits="userSpaceOnUse">
<stop stop-color="#AB8F39"/>
<stop offset="1" stop-color="#FDDB5C"/>
</linearGradient>
</defs>
</svg>
